<svg xmlns="http://www.w3.org/2000/svg" viewBox="0 0 64 64">
  <!-- CSUB Blue background -->
  <circle cx="32" cy="32" r="31" fill="#003594"/>

  <!-- Official Rowdy roadrunner head - adapted from CSUB athletics logo -->
  <g fill="#FFC72C" transform="translate(8,10) scale(0.17)">
    <path d="m161.93 90.767s.85 11.052-5.21 11.212c0 0 .22 8.01 3.46 4.93 3.24-3.1 2.54-6.26 6.57-6.07 0 0 1.71-5.842-4.82-10.072zm-36.66 4.195c-1.38.048-2.72.501-4 1.514-5.19 4.103 4.19 12.133 7.42 12.573 0 0-.33-6.32 4.79-5.38 5.13.95 11.31 8.6 15.15 7.13 3.19-1.23 3.68-5.3 2.6-8.72-1.8 1.78-5.39 4.47-9.13 2.43-4.33-2.36-10.88-9.754-16.83-9.547zm38.81 10.027c-.44 0-.8.36-.8.82 0 .43.36.8.8.8.45 0 .81-.37.81-.8 0-.46-.36-.82-.81-.82zm-25.62 3.1c-.68 0-1.24.55-1.24 1.24s.56 1.25 1.24 1.25c.7 0 1.25-.56 1.25-1.25s-.55-1.24-1.25-1.24zm-16.31 10.29c-.12 1.74-1.19 1.38-2 .1-3.28.62-2.55 3.37-2.55 3.37s.91-.09 2.42.2c1.02-1.53 1.86-.87 1.96.52 1.16.38 2.48.97 3.91 1.83.22.14.46.28.7.42 1.57-.81 2.02-.15 1.55.92 1.45.81 3.11 1.71 4.82 2.55 1.34-.92 1.87-.31 1.63.78 3.3 1.53 6.62 2.74 8.91 2.76-1.52-.91-3.81-2.97-6.47-5.2-1.74.39-2-.24-1.3-1.08-1.75-1.44-3.63-2.89-5.52-4.1-1.45.62-1.86.05-1.44-.88-1.93-1.1-3.84-1.89-5.61-2.1-.37-.05-.69-.08-1.01-.09z"/>
    <path d="m34.144 31.301c4.904 27.701 26.89 34.022 26.89 34.022l-1.945-4.322c-18.156-10.067-24.945-29.7-24.945-29.7zm24.013 12.902s10.175 25.959 39.421 37.413c0 0 6.582-1.297 8.612-3.631 0 0-33.579-11.852-48.033-33.782zm-19.299 9.442c.47 18.672 45.243 27.703 56.581 38.508 1.306-1.095 2.517-1.887 3.459-2.431-18.04-12.402-51.718-20.125-60.04-36.077zm41.798 2.008c4.879 11.561 24.684 15.66 24.684 15.66-2.66-1.754-7.127-7.062-7.127-7.062-10.313-2.25-17.557-8.598-17.557-8.598zm20.234.85c8.02 19.674 37.61 14.006 48.86 20.461 1.68-.738 4.19-1.312 7.46-.653-9.64-10.981-35.68-2.828-56.32-19.808zm40.07 26.955c-.53.006-.84.057-.84.057 7.19 3.449 7.82 9.888 7.82 9.888-12.98-12.62-25-5.939-25-5.939 9.66.795 13.82 7.6 18.88 11.939 5.04 4.346 10.08-.23 10.08-.23 8.59 1.386 5.89-12.293 5.89-12.293-4.16-1.493-7.56.211-7.56.211-3.97-3.276-7.67-3.651-9.27-3.633zm-26.4 8.223c-.97-.009-1.9.054-2.79.175.04.012.05.018.05.018s-7.89 1.893-10.6 12.985c-1.778 7.28-.18 12.05 1.12 14.46-2.12 4.41-10.147 9.8-16.979 11.31 0 0-.833-2.04-3.726-3.83 0 0 3.308-1 5.467-2.05-6.538-2.53-33.139-12.17-58.017-11.65 0 0 44.618 1.2 60.249 30.51 0 0 4.567-11.29 12.496-14.17 0 0-10.321 12.95-14.66 26.139 0 0 13.5-6.959 20.68-10.299 0 0-1.21-3.6-1.93-5.75l3.13-6.11s1.43-2.3 3.63-4.85c.29.26.6.52.91.79 16.65 13.69 36.15 6.11 36.15 6.11-9.89 1.79-28.24-13.57-36.77-11.76.47-7.24 9.92-14.21 30.25 4.51 19.12 17.63 62.499 13.34 62.499 13.34-7.71-2.34-22.02-13.98-26.78-25.51-4.929-11.92-12.219-5.97-14.499-4.51-2.29 1.46-8.12-.42-8.12-.42-11.92 5.78-26.36 2.42-35.97-3.31-7.86-4.67-19.06 6.51-10.5 17.73l-.69.96s-4.35-3.03-6.14-8.4c-.27-2.38-.27-5.9 1.05-9.8 0 0-1.8-1.49.9-3.44 0 0 .01-4.947 8.7-10.635 0 0 .26-.993.89-2.543zm43.14 25.648s1.95 3.52 4.92 5.84c0 0-7.33-1.76-9.1-5.1 0 0 3.07 1.3 4.18-.74z"/>
  </g>

  <!-- Gold ring accent -->
  <circle cx="32" cy="32" r="31" fill="none" stroke="#FFC72C" stroke-width="1.5"/>
</svg>
